<svg xmlns="http://www.w3.org/2000/svg" viewBox="0 0 512 512"><circle cx="256" cy="256" r="256" fill="#51b1ce"/><path d="M488.221 93.026v270.879a256.557 256.557 0 01-20.898 36.624c-46.111 67.312-123.559 111.47-211.32 111.47s-165.209-44.157-211.32-111.47a256.557 256.557 0 01-20.898-36.624V93.026c0-25.109 20.355-45.464 45.464-45.464h373.509c25.109.001 45.463 20.355 45.463 45.464z" fill="#34405c"/><path d="M467.323 90.477V400.53a257.379 257.379 0 01-28.996 35.182 252.199 252.199 0 01-17.544 16.206 256.09 256.09 0 01-28.609 20.898 253.558 253.558 0 01-33.28 17.648 237.831 237.831 0 01-15.977 6.395c-24.764 8.944-51.294 14.169-78.932 15.015a255.035 255.035 0 01-15.966 0c-27.638-.846-54.168-6.071-78.932-15.015a237.063 237.063 0 01-15.976-6.395 253.677 253.677 0 01-33.28-17.648 256.09 256.09 0 01-28.609-20.898 252.444 252.444 0 01-17.544-16.206 257.379 257.379 0 01-28.996-35.182V90.477c0-12.163 9.853-22.016 22.006-22.016h378.619c12.152 0 22.016 9.853 22.016 22.016z" fill="#4e608a"/><path fill="#f74c83" d="M74.188 166.661h78.921v78.921H74.188z"/><path fill="#49c0b6" d="M169.096 166.661h78.921v78.921h-78.921z"/><path fill="#ffc83f" d="M263.993 166.661h78.921v78.921h-78.921z"/><path fill="#f74c83" d="M358.891 166.661h78.921v78.921h-78.921z"/><path fill="#49c0b6" d="M74.188 261.747h78.921v78.921H74.188z"/><path fill="#ffc83f" d="M169.096 261.747h78.921v78.921h-78.921z"/><path fill="#f74c83" d="M263.993 261.747h78.921v78.921h-78.921z"/><g fill="#ffc83f"><path d="M358.891 261.747h78.921v78.921h-78.921zM74.188 356.833h78.921v78.921H74.188z"/></g><path fill="#49c0b6" d="M169.096 356.833h78.921v78.921h-78.921z"/><path fill="#ffc83f" d="M263.993 356.833h78.921v78.921h-78.921z"/><path fill="#49c0b6" d="M358.891 356.833h78.921v78.921h-78.921z"/><path d="M153.112 451.917v38.546a253.677 253.677 0 01-33.28-17.648 256.09 256.09 0 01-28.609-20.898h61.889z" fill="#ffc83f"/><path d="M248.02 451.917v59.956c-27.638-.846-54.168-6.071-78.932-15.015v-44.941h78.932z" fill="#f74c83"/><path d="M342.918 451.917v44.941c-24.764 8.944-51.294 14.169-78.932 15.015v-59.956h78.932z" fill="#49c0b6"/><path d="M420.784 451.917a256.09 256.09 0 01-28.609 20.898 253.558 253.558 0 01-33.28 17.648v-38.546h61.889z" fill="#ffc83f"/><path d="M81.501 134.032c-9.746-9.746-9.746-25.55 0-35.296s25.55-9.746 35.296 0c8.22 8.22 9.506 20.754 3.855 30.326a24.858 24.858 0 01-3.855 4.968 24.895 24.895 0 01-4.968 3.855c-9.574 5.654-22.108 4.367-30.328-3.853z" fill="#f8f8f8"/><path d="M111.827 137.888l-14.052-14.052a6.24 6.24 0 018.824-8.824l14.052 14.052a24.858 24.858 0 01-3.855 4.968 24.87 24.87 0 01-4.969 3.856z" fill="#e2e2e2"/><path d="M202.534 116.385c0 13.782-11.175 24.957-24.957 24.957s-24.957-11.175-24.957-24.957c0-11.624 7.953-21.396 18.718-24.17a24.882 24.882 0 016.239-.788c2.151 0 4.249.272 6.239.788 10.764 2.774 18.718 12.545 18.718 24.17z" fill="#f8f8f8"/><path d="M183.815 92.215v19.872c0 3.444-2.795 6.239-6.239 6.239s-6.239-2.795-6.239-6.239V92.215a24.882 24.882 0 016.239-.788c2.152.001 4.248.272 6.239.788z" fill="#e2e2e2"/><path d="M273.65 134.032c-9.746 9.746-25.55 9.746-35.296 0-9.746-9.746-9.746-25.55 0-35.296 8.22-8.22 20.754-9.506 30.326-3.855 1.772 1.043 3.447 2.333 4.969 3.855s2.812 3.196 3.855 4.968c5.653 9.575 4.367 22.109-3.854 30.328z" fill="#f8f8f8"/><path d="M277.506 103.706l-14.052 14.052a6.24 6.24 0 01-8.824-8.824l14.052-14.052c1.772 1.043 3.447 2.333 4.968 3.855s2.812 3.197 3.856 4.969z" fill="#e2e2e2"/><path d="M359.388 116.385c0 13.782-11.175 24.957-24.957 24.957s-24.957-11.175-24.957-24.957c0-11.624 7.953-21.396 18.718-24.17a24.882 24.882 0 016.239-.788c2.151 0 4.249.272 6.239.788 10.765 2.774 18.718 12.545 18.718 24.17z" fill="#f8f8f8"/><path d="M340.67 92.215v19.872a6.241 6.241 0 01-6.239 6.239 6.241 6.241 0 01-6.239-6.239V92.215a24.882 24.882 0 016.239-.788c2.152.001 4.248.272 6.239.788z" fill="#e2e2e2"/><path d="M430.505 98.738c9.746 9.746 9.746 25.55 0 35.296s-25.55 9.746-35.296 0c-8.22-8.22-9.506-20.754-3.855-30.326a24.858 24.858 0 013.855-4.968 24.895 24.895 0 014.968-3.855c9.576-5.654 22.109-4.368 30.328 3.853z" fill="#f8f8f8"/><path d="M400.179 94.882l14.052 14.052a6.24 6.24 0 01-8.824 8.824l-14.051-14.052a24.858 24.858 0 013.855-4.968 24.9 24.9 0 014.968-3.856z" fill="#e2e2e2"/></svg>