<svg xmlns="http://www.w3.org/2000/svg" viewBox="0 0 512 512"><g fill="#f7b239"><circle cx="215.155" cy="63.037" r="17.699"/><circle cx="296.844" cy="63.037" r="17.699"/></g><g fill="#f2f2f2"><path d="M48.722 340.466h67.039v161.322H48.722zM204.693 340.472v.313h-37.617v86.222h18.802V501.794h-70.117V340.472z"/><path d="M255.994 427.007v74.787h-70.116V427.007h18.815v-86.535h51.301v.313h-18.802v86.222zM326.11 340.472v161.322h-70.116v-74.787h18.816v-86.222h-18.816v-.313zM396.24 427.007v74.787h-70.13V340.472h70.13v.313h-18.38v86.222zM463.279 340.472v161.322H396.24v-74.787h19.224v-86.222H396.24v-.313zM396.232 122.629h67.053v161.322h-67.053zM396.226 122.635v161.322H326.11V209.17h18.816v-86.535z"/><path d="M344.926 122.635v.313h-37.618v86.222h18.802V283.957h-70.103V209.17h18.789v-86.222h-18.789v-.313zM256.007 209.17v74.787h-70.129V122.635h70.129v.313h-18.815v86.222zM185.878 122.635v161.322h-70.117V209.17h18.38v-86.222h-18.38v-.313z"/><path d="M115.761 209.17v74.787H48.722V122.635h67.039v.313H96.537v86.222z"/></g><g fill="#4d4d4d"><path d="M415.464 340.785v86.222H377.86v-86.222h18.38zM274.81 340.785v86.222H237.192v-86.222h18.802z"/></g><g fill="#f95428"><path d="M115.761 283.957H501.782v217.837h-38.503V340.472H48.722v161.322H10.206V283.957h38.516zM501.782 10.217v273.739h-38.503V122.635H48.722v161.322H10.206V10.217h491.576zM314.538 63.043c0-9.775-7.924-17.699-17.699-17.699-9.775 0-17.699 7.924-17.699 17.699s7.924 17.699 17.699 17.699c9.775 0 17.699-7.924 17.699-17.699zm-81.689 0c0-9.775-7.924-17.699-17.699-17.699s-17.699 7.924-17.699 17.699 7.924 17.699 17.699 17.699 17.699-7.924 17.699-17.699z"/></g><g fill="#4d4d4d"><path d="M344.926 122.948v86.222H307.308v-86.222zM274.796 122.948v86.222h-37.604v-86.222h18.815zM204.693 340.785v86.222H167.076v-86.222zM134.141 122.948v86.222H96.537v-86.222h19.224z"/></g><path d="M386.034 340.466h20.422v.313h-20.422zM245.788 340.466h20.422v.313h-20.422zM105.556 122.629h20.422v.313h-20.422zM245.802 122.629h20.422v.313h-20.422z"/><g fill="#fff"><path d="M305.933 320.703H40.444c-5.641 0-10.211-4.572-10.211-10.211s4.57-10.211 10.211-10.211h265.489c5.641 0 10.211 4.572 10.211 10.211s-4.57 10.211-10.211 10.211zM335.886 320.703a10.25 10.25 0 01-7.216-2.995 9.998 9.998 0 01-1.28-1.552 10.302 10.302 0 01-.939-1.756 10.503 10.503 0 01-.572-1.92 9.769 9.769 0 01-.203-1.988c0-.667.068-1.334.203-2.001.124-.64.327-1.293.572-1.906a10.055 10.055 0 012.219-3.308c2.368-2.383 5.88-3.472 9.217-2.791.64.123 1.293.327 1.906.572.611.259 1.212.572 1.756.939.557.381 1.089.803 1.552 1.28a10.055 10.055 0 012.218 3.308 10.616 10.616 0 01.776 3.907 9.77 9.77 0 01-.204 1.988 10.425 10.425 0 01-.572 1.92 10.293 10.293 0 01-.938 1.756 10.17 10.17 0 01-1.28 1.552c-.463.477-.994.899-1.552 1.28a9.437 9.437 0 01-1.756.926 9.606 9.606 0 01-1.906.585 9.992 9.992 0 01-2.001.204z"/></g><g fill="#333"><path d="M48.722 89.592c4.093 0 7.863-2.543 9.421-6.317 1.729-4.187.437-9.18-3.156-11.958-7.33-5.668-18.198 1.022-16.256 10.158.992 4.663 5.216 8.117 9.991 8.117zM77.095 87.863c3.668 2.479 8.671 2.222 12.094-.558 3.333-2.708 4.613-7.322 3.18-11.366-3.014-8.507-15.371-8.939-18.965-.649-1.919 4.427-.416 9.931 3.691 12.573.543.367-.572-.368 0 0zM107.36 83.289a10.803 10.803 0 002.206 3.308c6.436 6.238 17.664 1.643 17.435-7.466-.223-8.852-11.144-13.077-17.435-6.979-2.887 2.974-3.708 7.286-2.206 11.137.26.612-.244-.627 0 0zM141.397 83.274c1.735 4.189 6.193 6.809 10.705 6.237 4.234-.536 7.74-3.743 8.684-7.899 1.013-4.463-1.19-9.195-5.254-11.291-3.952-2.037-8.749-1.253-11.929 1.83a10.4 10.4 0 00-2.206 11.123c.26.627-.244-.612 0 0zM39.286 53.322c2.893 6.988 12.806 8.301 17.479 2.355 2.839-3.611 2.814-8.863.027-12.498-3.082-4.02-8.946-5.099-13.294-2.524-4.481 2.655-5.907 8.129-4.136 12.844M73.323 53.322c1.645 3.971 5.767 6.569 10.07 6.294 4.019-.256 7.63-2.96 8.976-6.76 1.453-4.098.113-8.816-3.334-11.487-3.381-2.619-8.113-2.84-11.731-.572-4.184 2.625-5.796 7.976-3.981 12.525.26.626-.244-.613 0 0zM107.36 53.322c1.607 3.882 5.649 6.483 9.849 6.306 4.135-.174 7.872-2.978 9.232-6.881 1.364-3.912.091-8.43-3.052-11.112-3.368-2.874-8.328-3.126-12.061-.81-4.34 2.69-5.626 8.061-3.892 12.674M141.397 53.322c1.733 4.187 6.191 6.81 10.7 6.237 4.236-.538 7.745-3.74 8.689-7.899 1.013-4.464-1.19-9.197-5.257-11.291-3.952-2.035-8.745-1.254-11.927 1.83a10.4 10.4 0 00-2.205 11.123c.26.626-.244-.613 0 0zM351.733 83.274c3.149 7.605 13.952 8.41 18.184 1.347 2.302-3.842 1.785-8.884-1.254-12.178-3.12-3.383-8.257-4.214-12.308-2.068-4.61 2.442-6.539 8.097-4.622 12.899.259.627-.245-.612 0 0zM385.77 83.289c1.673 3.951 5.83 6.584 10.128 6.276 4.17-.298 7.887-3.257 9.085-7.268 1.283-4.293-.496-9.13-4.291-11.522-3.677-2.319-8.626-2.053-11.984.728-3.617 2.997-4.324 7.696-2.863 11.955M419.807 83.274c1.627 3.929 5.735 6.551 9.989 6.297 4.216-.252 7.997-3.212 9.212-7.266 1.208-4.031-.278-8.592-3.661-11.104-3.661-2.718-8.91-2.651-12.478.2-3.652 2.918-4.584 7.8-2.988 12.052M457.601 87.863c6.949 4.575 16.492-.877 15.857-9.232-.655-8.618-11.279-12.437-17.408-6.479-4.388 4.521-3.78 12.192 1.551 15.711.559.367-.557-.368 0 0zM351.733 53.337c1.691 3.993 5.834 6.606 10.185 6.271 4.452-.342 8.206-3.609 9.201-7.947 2.045-8.907-8.271-15.72-15.725-10.654-3.989 2.709-5.394 7.89-3.661 12.33.259.611-.245-.628 0 0zM389.542 57.91c7.781 5.259 18.17-2.545 15.428-11.451-1.281-4.165-5.15-7.133-9.517-7.239-4.35-.105-8.399 2.666-9.858 6.765-1.548 4.346.079 9.379 3.947 11.925.544.368-.559-.368 0 0zM419.807 53.322c1.624 3.922 5.728 6.543 9.973 6.298 4.129-.238 7.83-3.081 9.146-6.999 1.372-4.084-.123-8.803-3.577-11.371-3.612-2.683-8.782-2.659-12.35.093-3.752 2.893-4.735 7.852-3.118 12.157M457.601 57.91c6.61 4.351 15.713-.325 15.884-8.271.195-9.082-11.012-13.686-17.435-7.44-4.39 4.521-3.777 12.196 1.551 15.711.559.368-.557-.368 0 0z"/><path d="M501.789.001H10.211C4.57.001 0 4.573 0 10.212v491.576c0 5.639 4.57 10.211 10.211 10.211h491.578c5.641 0 10.211-4.572 10.211-10.211V10.212C512 4.573 507.428.001 501.789.001zm-10.211 20.422V273.74H473.49V122.631c0-5.639-4.57-10.211-10.211-10.211H48.721c-5.641 0-10.211 4.572-10.211 10.211v151.111H20.422V20.423h471.156zM106.744 198.959v-65.804h17.189v65.804h-17.189zm-10.211 20.423h9.016v54.358H58.932V132.842h27.39v76.329c0 5.639 4.572 10.211 10.211 10.211zm29.438 0h8.173c5.641 0 10.211-4.572 10.211-10.211v-76.329h31.317v140.9h-49.701v-54.36zm70.123-86.54h30.887v76.329c0 5.639 4.57 10.211 10.211 10.211h8.603v54.358h-49.701V132.842zm51.309 66.117v-65.804h17.189v65.804h-17.189zm18.814 20.423h8.586c5.641 0 10.211-4.572 10.211-10.211v-76.329H297.1v76.329c0 5.639 4.57 10.211 10.211 10.211h8.595v54.358h-49.687v-54.358h-.002zm51.305-20.423v-65.804h17.189v65.804h-17.189zm18.805 20.423h8.595c5.641 0 10.211-4.572 10.211-10.211v-76.329h30.889v140.9h-49.694v-54.36h-.001zm70.116-86.54h46.624v140.9h-46.624v-140.9zm46.624 358.735H406.45v-54.358h9.017c5.641 0 10.211-4.572 10.211-10.211v-76.329h27.389v140.898zm-65-74.781v-65.805h17.189v65.805h-17.189zm-10.211 20.423h8.172v54.358h-49.701v-140.9h31.318v76.329c0 5.641 4.572 10.213 10.211 10.213zm-61.952 54.358h-49.701v-54.358h8.605c5.641 0 10.211-4.572 10.211-10.211v-76.329h30.885v140.898zm-68.494-74.781v-65.805h17.189v65.805H247.41zm-10.211 20.423h8.584v54.358h-49.689v-54.358h8.595c5.641 0 10.211-4.572 10.211-10.211v-76.329h12.087v76.329c.001 5.639 4.571 10.211 10.212 10.211zm-59.91-20.423v-65.805h17.189v65.805h-17.189zm-10.211 20.423h8.595v54.358h-49.694v-140.9h30.889v76.329c-.001 5.641 4.57 10.213 10.21 10.213zm-61.522 54.358H58.932v-140.9h46.624v140.9zm367.933 0V340.466c0-5.639-4.57-10.211-10.211-10.211H48.721c-5.641 0-10.211 4.572-10.211 10.211v151.111H20.422V294.162h471.156v197.415h-18.089z"/><path d="M215.155 90.949c15.39 0 27.91-12.52 27.91-27.91s-12.52-27.91-27.91-27.91-27.91 12.52-27.91 27.91 12.521 27.91 27.91 27.91zm0-35.399c4.129 0 7.488 3.359 7.488 7.488s-3.359 7.488-7.488 7.488-7.488-3.359-7.488-7.488 3.358-7.488 7.488-7.488zM296.844 90.949c15.39 0 27.91-12.52 27.91-27.91s-12.52-27.91-27.91-27.91-27.91 12.52-27.91 27.91 12.521 27.91 27.91 27.91zm0-35.399c4.129 0 7.488 3.359 7.488 7.488s-3.359 7.488-7.488 7.488c-4.129 0-7.488-3.359-7.488-7.488s3.358-7.488 7.488-7.488z"/></g></svg>